# xmcd
#
# Track frame offsets:
#	150
#	23180
#	41750
#	64534
#	79894
#	92507
#	106804
#	123364
#	138299
#	154332
#	169725
#	182160
#	195556
#	225623
#
# Disc length: 4012 seconds
# Revision: 4
# Processed by: cddbd v1.5.2PL0 Copyright (c) Steve Scherf et al.
# Submitted via: dBpowerAMP V12.0
#
DISCID=b00faa0e
DTITLE=Willie Nelson and the Offenders - Me and the Drummer
DYEAR=2000
DGENRE=Country
TTITLE0=Me and the Drummer
TTITLE1=Home Motel
TTITLE2=I Let My Mind Wander
TTITLE3=I'd Rather You Didn't Love Me
TTITLE4=Something to Think About
TTITLE5=No Tomorrow in Sight
TTITLE6=I'm So Ashamed
TTITLE7=A Moment Isn't Very Long
TTITLE8=Rainy Day Blues
TTITLE9=You Wouldn't Cross the Street to Say Goodbye
TTITLE10=I Guess I've Come to Live Here in Your Eyes
TTITLE11=Forgiving You Is Easy
TTITLE12=What a Way to Live
TTITLE13=DATA
EXTD=
EXTT0=
EXTT1=
EXTT2=
EXTT3=
EXTT4=
EXTT5=
EXTT6=
EXTT7=
EXTT8=
EXTT9=
EXTT10=
EXTT11=
EXTT12=
EXTT13=
PLAYORDER=
